<svg id="Layer_1" data-name="Layer 1" xmlns="http://www.w3.org/2000/svg" viewBox="0 0 189.65 53.84" fill="white"><title>shortcut-logo</title><path d="M96.31,167.05v4.61H91.06v32.2h5.26v4.61H85.84V167.05H96.31Z" transform="translate(-85.84 -154.63)"/><path d="M116.41,192.78A6.38,6.38,0,0,1,114,198a9.23,9.23,0,0,1-6.05,2,16.22,16.22,0,0,1-5.1-.88,15,15,0,0,1-4.77-2.59l2.69-3.83a11.72,11.72,0,0,0,7.3,2.65,3.29,3.29,0,0,0,1.87-.47,1.43,1.43,0,0,0,.69-1.24,1.8,1.8,0,0,0-1-1.43,10.85,10.85,0,0,0-2.77-1.22q-1.81-.57-2.77-1a15.53,15.53,0,0,1-2.18-1.18,5.06,5.06,0,0,1-2.49-4.59,6,6,0,0,1,2.45-5,9.94,9.94,0,0,1,6.32-1.92,13.78,13.78,0,0,1,7.75,2.61L113.72,184a10,10,0,0,0-5.69-2q-2.83,0-2.83,1.55a1.49,1.49,0,0,0,.9,1.35,18.29,18.29,0,0,0,3,1.14q2.08,0.65,3,1a14.86,14.86,0,0,1,2.1,1.08A5,5,0,0,1,116.41,192.78Z" transform="translate(-85.84 -154.63)"/><path d="M126,187.78v11.82h-6.11V169.36H126v10.76a8.54,8.54,0,0,1,6.22-2.81,7.76,7.76,0,0,1,5.81,2.45,9,9,0,0,1,2.37,6.52v13.33h-6.12v-12q0-5.06-3.71-5.06a4.45,4.45,0,0,0-3.2,1.33A5.18,5.18,0,0,0,126,187.78Z" transform="translate(-85.84 -154.63)"/><path d="M166.64,188.64a10.85,10.85,0,0,1-3.3,8,12.18,12.18,0,0,1-16.59,0,11.44,11.44,0,0,1,0-16.08,12.13,12.13,0,0,1,16.59,0A10.92,10.92,0,0,1,166.64,188.64Zm-17,0a6.28,6.28,0,0,0,1.53,4.38,5.37,5.37,0,0,0,7.83,0,6.28,6.28,0,0,0,1.53-4.38,6.36,6.36,0,0,0-1.53-4.4,5.33,5.33,0,0,0-7.83,0A6.36,6.36,0,0,0,149.6,188.64Z" transform="translate(-85.84 -154.63)"/><path d="M181.48,183.05A4.63,4.63,0,0,0,177.4,185a8.81,8.81,0,0,0-1.35,5.12v9.5h-6.11V177.67h6.11v2.89a10.26,10.26,0,0,1,3-2.28,8,8,0,0,1,3.61-1l0,5.75h-1.18Z" transform="translate(-85.84 -154.63)"/><path d="M192.77,182.08v9.83a2.82,2.82,0,0,0,.65,2,2,2,0,0,0,1.55.71,3.53,3.53,0,0,0,2.89-1.55l2.28,4.28a8.83,8.83,0,0,1-6,2.61,7.3,7.3,0,0,1-7.52-7.75V182.08H184v-4.4h2.57v-6.56h6.16v6.56h5.3v4.4h-5.3Z" transform="translate(-85.84 -154.63)"/><path d="M212.71,194.51q3.06,0,5.5-3.06l3.63,4.08q-4.24,4.4-9.17,4.4a11.89,11.89,0,0,1-8.34-3.12,11.47,11.47,0,0,1,0-16.35,11.68,11.68,0,0,1,8.17-3.16,12.75,12.75,0,0,1,4.79,1,12.12,12.12,0,0,1,4.26,2.89l-3.18,4.16a7.58,7.58,0,0,0-5.63-2.65,6,6,0,0,0-4.14,1.57,5.59,5.59,0,0,0-1.73,4.36,5.52,5.52,0,0,0,1.73,4.34A5.89,5.89,0,0,0,212.71,194.51Z" transform="translate(-85.84 -154.63)"/><path d="M238.84,189.5V177.67H245v21.93h-6.16v-2.89a6.94,6.94,0,0,1-5.89,3.22,8.58,8.58,0,0,1-6.05-2.26q-2.45-2.26-2.45-6.71V177.67h6.16v11.95q0,5.06,3.71,5.05a4.38,4.38,0,0,0,3.18-1.32A5.18,5.18,0,0,0,238.84,189.5Z" transform="translate(-85.84 -154.63)"/><path d="M256.86,182.08v9.83a2.82,2.82,0,0,0,.65,2,2,2,0,0,0,1.55.71A3.53,3.53,0,0,0,262,193l2.28,4.28a8.83,8.83,0,0,1-6,2.61,7.3,7.3,0,0,1-7.52-7.75V182.08h-2.57v-4.4h2.57v-6.56h6.16v6.56h5.3v4.4h-5.3Z" transform="translate(-85.84 -154.63)"/><path d="M265,208.47v-4.61h5.26V171.51H265v-4.61h10.48v41.56H265Z" transform="translate(-85.84 -154.63)"/><path d="M224.88,154.64h4.74a2.73,2.73,0,0,1,3.06,2.83,2.69,2.69,0,0,1-2,2.72v0a2.64,2.64,0,0,1,2.08,2.69,2.92,2.92,0,0,1-3.12,3.14h-4.8V154.64Zm3.91,4.75a1.49,1.49,0,0,0,1.62-1.58,1.33,1.33,0,0,0-1.47-1.42h-1.78v3h1.63Zm0.18,4.88a1.56,1.56,0,1,0-.13-3.12h-1.68v3.12H229Z" transform="translate(-85.84 -154.63)"/><path d="M234.93,154.64H242v1.87h-4.79v2.79H241v1.87h-3.81v3H242v1.89h-7.09V154.64Z" transform="translate(-85.84 -154.63)"/><path d="M246.5,156.48h-3v-1.84h8.36v1.84h-3v9.57H246.5v-9.57Z" transform="translate(-85.84 -154.63)"/><path d="M255.25,154.63H258l3.31,11.43H259l-0.75-2.74h-3.55L254,166.05h-2.11Zm2.56,6.95-1.26-4.72h0l-1.28,4.72h2.59Z" transform="translate(-85.84 -154.63)"/></svg>
