<?xml version="1.0" encoding="utf-8"?>
<!-- Generator: Adobe Illustrator 19.2.0, SVG Export Plug-In . SVG Version: 6.00 Build 0)  -->
<svg version="1.1" id="Layer_1" xmlns="http://www.w3.org/2000/svg" xmlns:xlink="http://www.w3.org/1999/xlink" x="0px" y="0px"
	 viewBox="0 0 1440 556.8" style="enable-background:new 0 0 1440 556.8;" xml:space="preserve">
<style type="text/css">
	.st0{fill:none;stroke:hsl(271, 30%, 40%);stroke-width:5;stroke-linecap:round;stroke-linejoin:round;stroke-miterlimit:10;}
</style>
<g>
	<path class="st0" d="M257,137V94.1c0-4.9,3.8-8.9,8.5-8.9s8.5,4,8.5,8.9v35.6c0,4.9,3.8,8.9,8.5,8.9s8.5-4,8.5-8.9V63.5
		c0-4.9,3.8-8.9,8.5-8.9c4.7,0,8.5,4,8.5,8.9v112.1c0,4.9,3.8,8.9,8.5,8.9s8.5-4,8.5-8.9v-73.8c0-4.9,3.8-8.9,8.5-8.9s8.5,4,8.5,8.9
		v33"/>
	<path class="st0" d="M342.4,135.6c0,4.9,3.8,8.9,8.5,8.9h23"/>
	<path class="st0" d="M257,137.9c0,4.9-3.8,8.9-8.5,8.9H226"/>
</g>
<g>
	<path class="st0" d="M363.2,467.1v-42.9c0-4.9,3.8-8.9,8.5-8.9s8.5,4,8.5,8.9v35.6c0,4.9,3.8,8.9,8.5,8.9c4.7,0,8.5-4,8.5-8.9
		v-66.2c0-4.9,3.8-8.9,8.5-8.9s8.5,4,8.5,8.9v112.1c0,4.9,3.8,8.9,8.5,8.9s8.5-4,8.5-8.9v-73.8c0-4.9,3.8-8.9,8.5-8.9
		c4.7,0,8.5,4,8.5,8.9v33"/>
	<path class="st0" d="M448.7,465.7c0,4.9,3.8,8.9,8.5,8.9h23"/>
	<path class="st0" d="M363.2,468c0,4.9-3.8,8.9-8.5,8.9h-22.4"/>
</g>
<g>
	<path class="st0" d="M617.1,329v-42.9c0-4.9,3.8-8.9,8.5-8.9c4.7,0,8.5,4,8.5,8.9v35.6c0,4.9,3.8,8.9,8.5,8.9s8.5-4,8.5-8.9v-66.2
		c0-4.9,3.8-8.9,8.5-8.9s8.5,4,8.5,8.9v112.1c0,4.9,3.8,8.9,8.5,8.9c4.7,0,8.5-4,8.5-8.9v-73.8c0-4.9,3.8-8.9,8.5-8.9s8.5,4,8.5,8.9
		v33"/>
	<path class="st0" d="M702.6,327.6c0,4.9,3.8,8.9,8.5,8.9h23"/>
	<path class="st0" d="M617.1,329.9c0,4.9-3.8,8.9-8.5,8.9h-22.4"/>
</g>
<g>
	<path class="st0" d="M143.7,246.1l26.9,16c0.9,0,1.6-0.7,1.6-1.6v-63.1c0-0.9-0.7-1.6-1.6-1.6l-26.9,16V246.1z"/>
	<path class="st0" d="M143.7,211.9H130c-0.9,0-1.6,0.7-1.6,1.6v31c0,0.9,0.7,1.6,1.6,1.6h13.7"/>
	<path class="st0" d="M172.3,217.2c6.5,0,11.8,5.3,11.8,11.8c0,6.5-5.3,11.8-11.8,11.8"/>
	<g>
		<path class="st0" d="M188.7,256.5c9.7-5.3,16.3-15.6,16.3-27.5c0-11.7-6.5-22-16-27.3"/>
		<path class="st0" d="M180.5,208.3c8.4,3.1,14.4,11.2,14.4,20.7c0,9.6-6.1,17.7-14.6,20.8"/>
		<path class="st0" d="M180.3,249.8c8.5-3.1,14.6-11.2,14.6-20.8c0-9.5-6-17.6-14.4-20.7"/>
		<path class="st0" d="M154.2,228.9"/>
	</g>
</g>
<g>
	<path class="st0" d="M681.4,475.7l26.9,16c0.9,0,1.6-0.7,1.6-1.6V427c0-0.9-0.7-1.6-1.6-1.6l-26.9,16V475.7z"/>
	<path class="st0" d="M681.4,441.5h-13.7c-0.9,0-1.6,0.7-1.6,1.6v31c0,0.9,0.7,1.6,1.6,1.6h13.7"/>
	<path class="st0" d="M709.9,446.8c6.5,0,11.8,5.3,11.8,11.8s-5.3,11.8-11.8,11.8"/>
	<g>
		<path class="st0" d="M726.3,486.1c9.7-5.3,16.3-15.6,16.3-27.5c0-11.7-6.5-22-16-27.3"/>
		<path class="st0" d="M718.2,437.9c8.4,3.1,14.4,11.2,14.4,20.7c0,9.6-6.1,17.7-14.6,20.8"/>
		<path class="st0" d="M717.9,479.3c8.5-3.1,14.6-11.2,14.6-20.8c0-9.5-6-17.6-14.4-20.7"/>
		<path class="st0" d="M691.9,458.5"/>
	</g>
</g>
<g>
	<path class="st0" d="M547.1,216.3l26.9,16c0.9,0,1.6-0.7,1.6-1.6v-63.1c0-0.9-0.7-1.6-1.6-1.6l-26.9,16V216.3z"/>
	<path class="st0" d="M547.1,182.1h-13.7c-0.9,0-1.6,0.7-1.6,1.6v31c0,0.9,0.7,1.6,1.6,1.6h13.7"/>
	<path class="st0" d="M575.6,187.5c6.5,0,11.8,5.3,11.8,11.8s-5.3,11.8-11.8,11.8"/>
	<g>
		<path class="st0" d="M592,226.7c9.7-5.3,16.3-15.6,16.3-27.5c0-11.7-6.5-22-16-27.3"/>
		<path class="st0" d="M583.9,178.5c8.4,3.1,14.4,11.2,14.4,20.7c0,9.6-6.1,17.7-14.6,20.8"/>
		<path class="st0" d="M583.6,220c8.5-3.1,14.6-11.2,14.6-20.8c0-9.5-6-17.6-14.4-20.7"/>
		<path class="st0" d="M557.5,199.2"/>
	</g>
</g>
<g>
	
		<ellipse transform="matrix(0.8806 -0.4738 0.4738 0.8806 -88.6559 162.9712)" class="st0" cx="279.1" cy="257.4" rx="24.2" ry="24.2"/>
	<polyline class="st0" points="301.2,269.3 308.6,288.4 289.3,298.8 277.4,282.1 	"/>
	<polyline class="st0" points="307.1,290.7 339.4,354.2 327.2,360.8 292,298.8 	"/>
	<path class="st0" d="M266.1,264.4c-3.9-7.2-1.2-16.1,6-20"/>
</g>
<g>
	
		<ellipse transform="matrix(0.8806 -0.4738 0.4738 0.8806 -142.5939 61.681)" class="st0" cx="51.1" cy="313.8" rx="24.2" ry="24.2"/>
	<polyline class="st0" points="73.2,325.7 80.6,344.8 61.3,355.2 49.4,338.5 	"/>
	<polyline class="st0" points="79.1,347 111.4,410.6 99.2,417.2 64,355.2 	"/>
	<path class="st0" d="M38.1,320.8c-3.9-7.2-1.2-16.1,6-20"/>
</g>
<g>
	
		<ellipse transform="matrix(0.8806 -0.4738 0.4738 0.8806 -124.799 296.607)" class="st0" cx="526.2" cy="396" rx="24.2" ry="24.2"/>
	<polyline class="st0" points="548.3,407.9 555.7,426.9 536.4,437.3 524.5,420.7 	"/>
	<polyline class="st0" points="554.2,429.2 586.5,492.7 574.3,499.3 539.1,437.3 	"/>
	<path class="st0" d="M513.2,402.9c-3.9-7.2-1.2-16.1,6-20"/>
</g>
<g>
	
		<ellipse transform="matrix(0.8806 -0.4738 0.4738 0.8806 51.4127 294.6427)" class="st0" cx="610.4" cy="45.3" rx="24.2" ry="24.2"/>
	<polyline class="st0" points="632.5,57.2 639.9,76.3 620.6,86.7 608.7,70 	"/>
	<polyline class="st0" points="638.4,78.5 670.7,142.1 658.5,148.7 623.3,86.7 	"/>
	<path class="st0" d="M597.4,52.3c-3.9-7.2-1.2-16.1,6-20"/>
</g>
<g>
	<path class="st0" d="M465.8,323.5h-53c-3.9,0-7-3.1-7-7V202.6c0-3.8,3.1-7,7-7h53c3.8,0,7,3.2,7,7v113.9
		C472.8,320.4,469.6,323.5,465.8,323.5z"/>
	
		<ellipse transform="matrix(0.8806 -0.4738 0.4738 0.8806 -92.1423 244.5668)" class="st0" cx="439.3" cy="305.1" rx="7.2" ry="7.2"/>
</g>
<g>
	<path class="st0" d="M244.5,479.9h-53c-3.9,0-7-3.1-7-7V359.1c0-3.9,3.1-7,7-7h53c3.9,0,7,3.1,7,7v113.9
		C251.5,476.8,248.4,479.9,244.5,479.9z"/>
	
		<ellipse transform="matrix(0.8806 -0.4738 0.4738 0.8806 -192.6796 158.4045)" class="st0" cx="218" cy="461.6" rx="7.2" ry="7.2"/>
</g>
<g>
	<path class="st0" d="M99.9,148.8h-53c-3.9,0-7-3.1-7-7V27.9c0-3.9,3.1-7,7-7h53c3.8,0,7,3.1,7,7v113.9
		C106.9,145.7,103.7,148.8,99.9,148.8z"/>
	<ellipse transform="matrix(0.8806 -0.4738 0.4738 0.8806 -53.0462 50.3331)" class="st0" cx="73.4" cy="130.4" rx="7.2" ry="7.2"/>
</g>
<g>
	<path class="st0" d="M803.1,286h-53c-3.9,0-7-3.2-7-7V165.1c0-3.9,3.1-7,7-7h53c3.8,0,7,3.1,7,7V279
		C810.1,282.8,806.9,286,803.1,286z"/>
	<ellipse transform="matrix(0.8806 -0.4738 0.4738 0.8806 -34.079 399.915)" class="st0" cx="776.6" cy="267.6" rx="7.2" ry="7.2"/>
</g>
<g>
	<path class="st0" d="M1268,425.4v-42.9c0-4.9,3.8-8.9,8.5-8.9c4.7,0,8.5,4,8.5,8.9v35.6c0,4.9,3.8,8.9,8.5,8.9c4.7,0,8.5-4,8.5-8.9
		v-66.2c0-4.9,3.8-8.9,8.5-8.9c4.7,0,8.5,4,8.5,8.9V464c0,4.9,3.8,8.9,8.5,8.9c4.7,0,8.5-4,8.5-8.9v-73.8c0-4.9,3.8-8.9,8.5-8.9
		c4.7,0,8.5,4,8.5,8.9v33"/>
	<path class="st0" d="M1353.4,424c0,4.9,3.8,8.9,8.5,8.9h23"/>
	<path class="st0" d="M1268,426.3c0,4.9-3.8,8.9-8.5,8.9H1237"/>
</g>
<g>
	<path class="st0" d="M1181,124.8V81.9c0-4.9,3.8-8.9,8.5-8.9c4.7,0,8.5,4,8.5,8.9v35.6c0,4.9,3.8,8.9,8.5,8.9c4.7,0,8.5-4,8.5-8.9
		V51.3c0-4.9,3.8-8.9,8.5-8.9c4.7,0,8.5,4,8.5,8.9v112.1c0,4.9,3.8,8.9,8.5,8.9c4.7,0,8.5-4,8.5-8.9V89.5c0-4.9,3.8-8.9,8.5-8.9
		c4.7,0,8.5,4,8.5,8.9v33"/>
	<path class="st0" d="M1266.5,123.4c0,4.9,3.8,8.9,8.5,8.9h23"/>
	<path class="st0" d="M1181,125.7c0,4.9-3.8,8.9-8.5,8.9H1150"/>
</g>
<g>
	<path class="st0" d="M896.6,272.6v-42.9c0-4.9,3.8-8.9,8.5-8.9s8.5,4,8.5,8.9v35.6c0,4.9,3.8,8.9,8.5,8.9s8.5-4,8.5-8.9v-66.2
		c0-4.9,3.8-8.9,8.5-8.9s8.5,4,8.5,8.9v112.1c0,4.9,3.8,8.9,8.5,8.9s8.5-4,8.5-8.9v-73.8c0-4.9,3.8-8.9,8.5-8.9s8.5,4,8.5,8.9v33"/>
	<path class="st0" d="M982.1,271.2c0,4.9,3.8,8.9,8.5,8.9h23"/>
	<path class="st0" d="M896.6,273.5c0,4.9-3.8,8.9-8.5,8.9h-22.4"/>
</g>
<g>
	<path class="st0" d="M1222.3,282.4l26.9,16c0.9,0,1.6-0.7,1.6-1.6v-63.1c0-0.9-0.7-1.6-1.6-1.6l-26.9,16V282.4z"/>
	<path class="st0" d="M1222.3,248.2h-13.7c-0.9,0-1.6,0.7-1.6,1.6v31c0,0.9,0.7,1.6,1.6,1.6h13.7"/>
	<path class="st0" d="M1250.8,253.6c6.5,0,11.8,5.3,11.8,11.8c0,6.5-5.3,11.8-11.8,11.8"/>
	<g>
		<path class="st0" d="M1267.2,292.8c9.7-5.3,16.3-15.6,16.3-27.5c0-11.7-6.5-22-16-27.3"/>
		<path class="st0" d="M1259,244.6c8.4,3.1,14.4,11.2,14.4,20.7c0,9.6-6.1,17.7-14.6,20.8"/>
		<path class="st0" d="M1258.8,286.1c8.5-3.1,14.6-11.2,14.6-20.8c0-9.5-6-17.6-14.4-20.7"/>
		<path class="st0" d="M1232.7,265.3"/>
	</g>
</g>
<g>
	<path class="st0" d="M966.9,421.9l26.9,16c0.9,0,1.6-0.7,1.6-1.6v-63.1c0-0.9-0.7-1.6-1.6-1.6l-26.9,16V421.9z"/>
	<path class="st0" d="M966.9,387.6h-13.7c-0.9,0-1.6,0.7-1.6,1.6v31c0,0.9,0.7,1.6,1.6,1.6h13.7"/>
	<path class="st0" d="M995.4,393c6.5,0,11.8,5.3,11.8,11.8s-5.3,11.8-11.8,11.8"/>
	<g>
		<path class="st0" d="M1011.8,432.2c9.7-5.3,16.3-15.6,16.3-27.5c0-11.7-6.5-22-16-27.3"/>
		<path class="st0" d="M1003.6,384c8.4,3.1,14.4,11.2,14.4,20.7c0,9.6-6.1,17.7-14.6,20.8"/>
		<path class="st0" d="M1003.4,425.5c8.5-3.1,14.6-11.2,14.6-20.8c0-9.5-6-17.6-14.4-20.7"/>
		<path class="st0" d="M977.3,404.7"/>
	</g>
</g>
<g>
	<path class="st0" d="M855.2,122.7l26.9,16c0.9,0,1.6-0.7,1.6-1.6V74c0-0.9-0.7-1.6-1.6-1.6l-26.9,16V122.7z"/>
	<path class="st0" d="M855.2,88.5h-13.7c-0.9,0-1.6,0.7-1.6,1.6v31c0,0.9,0.7,1.6,1.6,1.6h13.7"/>
	<path class="st0" d="M883.7,93.8c6.5,0,11.8,5.3,11.8,11.8s-5.3,11.8-11.8,11.8"/>
	<g>
		<path class="st0" d="M900.2,133.1c9.7-5.3,16.3-15.6,16.3-27.5c0-11.7-6.5-22-16-27.3"/>
		<path class="st0" d="M892,84.9c8.4,3.1,14.4,11.2,14.4,20.7c0,9.6-6.1,17.7-14.6,20.8"/>
		<path class="st0" d="M891.7,126.3c8.5-3.1,14.6-11.2,14.6-20.8c0-9.5-6-17.6-14.4-20.7"/>
		<path class="st0" d="M865.7,105.5"/>
	</g>
</g>
<g>
	
		<ellipse transform="matrix(0.8806 -0.4738 0.4738 0.8806 -75.2638 428.0621)" class="st0" cx="811.8" cy="363.4" rx="24.2" ry="24.2"/>
	<polyline class="st0" points="833.9,375.3 841.3,394.4 822,404.7 810.1,388.1 	"/>
	<polyline class="st0" points="839.8,396.6 872.2,460.2 859.9,466.8 824.7,404.7 	"/>
	<path class="st0" d="M798.8,370.4c-3.9-7.2-1.2-16.1,6-20"/>
</g>
<g>
	
		<ellipse transform="matrix(0.8806 -0.4738 0.4738 0.8806 41.1073 528.7569)" class="st0" cx="1069.8" cy="182.8" rx="24.2" ry="24.2"/>
	<polyline class="st0" points="1091.9,194.7 1099.3,213.8 1080,224.2 1068.1,207.5 	"/>
	<polyline class="st0" points="1097.8,216 1130.2,279.6 1117.9,286.2 1082.7,224.2 	"/>
	<path class="st0" d="M1056.8,189.8c-3.9-7.2-1.2-16.1,6-20"/>
</g>
<g>
	<path class="st0" d="M1166.6,489.3h-53c-3.8,0-7-3.1-7-7V368.4c0-3.8,3.2-7,7-7h53c3.8,0,7,3.2,7,7v113.9
		C1173.6,486.1,1170.5,489.3,1166.6,489.3z"/>
	
		<ellipse transform="matrix(0.8806 -0.4738 0.4738 0.8806 -87.0215 596.4756)" class="st0" cx="1140.1" cy="470.9" rx="7.2" ry="7.2"/>
</g>
<g>
	<path class="st0" d="M1408.1,296.1h-53c-3.8,0-7-3.1-7-7V175.2c0-3.8,3.2-7,7-7h53c3.8,0,7,3.2,7,7v113.9
		C1415.1,293,1412,296.1,1408.1,296.1z"/>
	
		<ellipse transform="matrix(0.8806 -0.4738 0.4738 0.8806 33.3472 687.8309)" class="st0" cx="1381.6" cy="277.7" rx="7.2" ry="7.2"/>
</g>
</svg>
