<?xml version="1.0" encoding="utf-8"?>
<!-- Generator: Adobe Illustrator 15.0.2, SVG Export Plug-In . SVG Version: 6.00 Build 0)  -->
<!DOCTYPE svg PUBLIC "-//W3C//DTD SVG 1.1//EN" "http://www.w3.org/Graphics/SVG/1.1/DTD/svg11.dtd">
<svg version="1.1" id="LOGO" xmlns="http://www.w3.org/2000/svg" xmlns:xlink="http://www.w3.org/1999/xlink" x="0px" y="0px"
	 width="1000px" height="1901.54px" viewBox="0 0 1000 1901.54" enable-background="new 0 0 1000 1901.54" xml:space="preserve">
<g>
	<path fill="#422859" d="M97.04,94.46H10V17.737h264.985V94.46h-86.396v382.967H97.04V94.46z"/>
	<path fill="#422859" d="M305.924,17.737h90.908v186.326h79.947V17.737h90.903v459.69h-90.903V286.588h-79.947v190.839h-90.908
		V17.737z"/>
	<path fill="#422859" d="M614.099,17.737h90.911v459.69h-90.911V17.737z"/>
	<path fill="#422859" d="M741.108,351.704l85.104-2.575c2.572,28.367,9.025,61.248,41.259,61.248
		c25.789,0,33.525-21.922,33.525-42.553c0-25.143-16.113-43.843-42.551-68.985l-43.846-43.198
		c-41.259-38.682-66.4-76.722-66.4-127.01C748.2,64.802,788.175,10,870.05,10c57.385,0,110.897,29.658,114.761,130.234
		l-79.946,2.581c-3.218-33.526-10.958-59.962-39.324-59.962c-22.572,0-32.882,17.409-32.882,38.686
		c0,24.499,25.14,47.71,47.064,68.341l40.621,39.973c44.486,42.553,69.626,81.881,69.626,133.457
		c0,67.698-46.419,121.21-123.144,121.21C790.104,484.519,745.622,433.585,741.108,351.704z"/>
</g>
<g>
	<path fill="#E14026" d="M95.335,521.285h94.562l68.46,351.654h-70.43l-14.283-78.802h-71.415l-14.283,78.802H23.922L95.335,521.285
		z M162.317,737.991l-23.149-138.396h-1.476l-24.134,138.396H162.317z"/>
	<path fill="#E14026" d="M289.378,521.776h88.654l37.922,139.874h1.477l39.4-139.874h84.711v351.163h-61.562V626.191h-0.984
		l-39.402,149.724h-47.771l-40.384-149.231h-0.989v246.256h-61.072V521.776z"/>
	<path fill="#E14026" d="M583.399,521.776h168.933v58.609h-99.984v82.742h79.298v59.104h-79.298v91.113h100.478v59.595H583.399
		V521.776z"/>
	<path fill="#E14026" d="M789.265,521.776h100.972c59.099,0,95.057,32.508,95.057,103.923c0,50.728-16.261,79.294-40.884,92.593
		l45.316,154.647h-71.908l-35.958-139.381h-23.146v139.381h-69.449V521.776z M884.324,681.845c19.7,0,31.519-13.79,31.519-51.716
		c0-32.998-10.342-50.729-32.011-50.729h-25.118v102.445H884.324z"/>
</g>
<g>
	<path fill="#E14026" d="M28.478,916.256h83.961v424.568H28.478V916.256z"/>
	<path fill="#E14026" d="M157.097,1236.618v-217.345c0-70.268,54.19-109.57,122.669-109.57c63.715,0,113.735,36.922,113.735,102.421
		v47.048H317.28v-39.898c0-22.628-14.888-36.923-37.515-36.923c-25.604,0-37.516,15.483-37.516,38.71v211.983
		c0,25.605,13.697,40.494,38.11,40.494c22.032,0,36.92-14.889,36.92-36.92v-38.705h76.221v43.465
		c0,66.696-49.426,105.996-114.333,105.996C208.904,1347.374,157.097,1311.048,157.097,1236.618z"/>
	<path fill="#E14026" d="M501.29,915.658h114.33l82.77,425.167h-85.153l-17.267-95.277h-86.346l-17.267,95.277h-77.409
		L501.29,915.658z M582.276,1177.663l-27.992-167.326H552.5l-29.177,167.326H582.276z"/>
	<path fill="#E14026" d="M733.527,916.256h85.747l89.319,226.872h1.79V916.256h74.433v424.568h-75.623l-99.445-254.268h-1.785
		v254.268h-74.436V916.256z"/>
</g>
<g>
	<path fill="#422859" d="M29.007,1383.968h99.662v421.435h145.227v86.137H29.007V1383.968z"/>
	<path fill="#422859" d="M310.197,1383.968h100.378v507.571H310.197V1383.968z"/>
	<path fill="#422859" d="M461.117,1383.968h243.465v84.71H560.781v122.446h114.61v86.136h-114.61v214.279h-99.665V1383.968z"/>
	<path fill="#422859" d="M742.306,1383.968H986.48v84.71H841.973v119.6h114.608v85.423H841.973v131.702h145.226v86.137H742.306
		V1383.968z"/>
</g>
</svg>
